<svg width="32" height="31" viewBox="0 0 32 31" fill="none" xmlns="http://www.w3.org/2000/svg">
    <path
        d="M1.51208 22.7987C2.8494 21.8131 4.01121 20.9384 5.5177 19.8468C7.73673 23.3091 11.1112 25.6727 15.2208 25.8608C18.0716 25.9914 20.6198 25.1027 22.822 23.2957C25.3366 21.2325 26.7237 18.5509 26.9708 15.3098C27.2172 12.0792 25.7444 8.96718 23.6174 6.51088C24.9519 5.48034 26.3805 4.47508 27.7037 3.5C30.7799 6.61478 33.0958 12.4358 31.4601 18.6379C29.7178 25.2459 24.2183 29.8559 17.8104 30.7131C10.9357 31.6327 4.65354 28.183 1.51208 22.7994V22.7987Z"
        fill="white" />
    <path
        d="M14.9576 0.781943C16.7919 -0.543434 19.3535 -0.143294 20.6697 1.67419C21.9853 3.49026 21.5746 6.08064 19.7627 7.39268C17.9263 8.72297 15.3633 8.30388 14.0218 6.45341C12.7217 4.6605 13.145 2.09117 14.9576 0.781241V0.781943Z"
        fill="white" />
    <path d="M0 13.5175L9.69182 6.46729L13.7164 11.9296L4.02457 18.979L0 13.5175Z" fill="white" />
</svg>